<svg version="1.2" xmlns="http://www.w3.org/2000/svg" viewBox="0 0 96 14" width="96" height="14"><style>.a{fill:#72767d}</style><path fill-rule="evenodd" class="a" d="m15.6 13.8h-3.7l-1.1-2.7h-6.1l-1.1 2.7h-3.6l5.6-13.7h3.9zm-8-10.5l-2 5.4h4.2zm14.9-3.3c1.3 0 2.5 0 3.6 0.6 0.8 0.5 1.8 1.7 1.8 3.3 0 2.3-1.7 3.1-2.3 3.4 1 0.5 1.6 1.9 1.9 2.6 0.4 0.7 1 2 1.4 2.8l0.4 1h-3.7c-0.3-0.6-1.5-3.3-1.8-3.9-0.9-1.7-1.6-1.7-2.6-1.7h-0.5v5.6h-3.5v-13.7zm-1.8 2.5v3.1h1.5c0.8 0 1.1 0 1.4-0.2 0.5-0.3 0.8-0.8 0.8-1.4 0-1.5-1.6-1.5-1.9-1.5zm25 11.2h-3.5v-8.4l-3.7 4.4h-0.5l-3.6-4.4v8.4h-3.5v-13.7h3l4.4 5.2 4.4-5.2h3zm8.9-13.9c0.6 0.1 1.3 0.2 1.7 0.3 0.3 0.1 0.9 0.5 1.2 0.7 0.4 0.3 0.9 0.9 1.2 1.3 0.3 0.4 0.5 0.8 0.4 0.8 0 0.1-0.6 0.4-2.7 1.2l-0.4-0.3c-0.2-0.2-0.5-0.5-0.7-0.5-0.2-0.1-0.7-0.2-1-0.2-0.3 0-0.8 0.1-1 0.3-0.3 0.1-0.6 0.3-0.7 0.5-0.1 0.3-0.1 1-0.1 2.9 0 2.4 0 2.6 0.2 2.9 0.1 0.2 0.4 0.5 0.6 0.6 0.2 0.1 0.7 0.2 1 0.2 0.3 0 0.7-0.1 1-0.3 0.2-0.1 0.5-0.3 0.6-0.5 0.1-0.2 0.3-0.4 0.4-0.4 0 0 0.7 0.3 1.5 0.7 0.7 0.4 1.4 0.7 1.4 0.8 0 0-0.1 0.3-0.3 0.5-0.1 0.2-0.4 0.6-0.7 0.9-0.3 0.3-1 0.7-1.4 1-0.4 0.2-1.1 0.4-1.5 0.5-0.4 0.1-1.1 0.1-1.5 0.1-0.5-0.1-1.3-0.2-1.7-0.4-0.4-0.1-1-0.5-1.4-0.7-0.3-0.2-0.7-0.7-0.9-1-0.3-0.3-0.5-0.8-0.6-1.2-0.2-0.4-0.2-1.4-0.2-3.8 0-2.8 0-3.3 0.2-3.8 0.2-0.4 0.5-1 0.9-1.4 0.4-0.4 0.8-0.8 1.4-1 0.5-0.3 1.2-0.5 1.5-0.6 0.3-0.1 1-0.1 1.6-0.1zm11.4 0c0.8 0.1 1.4 0.2 2 0.4 0.4 0.1 1.1 0.4 1.4 0.7 0.4 0.2 0.9 0.6 1.1 0.9 0.2 0.3 0.5 0.9 0.6 1.2 0.2 0.5 0.2 1.1 0.2 3.8 0 2.7 0 3.3-0.2 3.8-0.1 0.3-0.4 0.8-0.6 1.2-0.2 0.3-0.7 0.7-1.1 1-0.3 0.2-1 0.5-1.4 0.7-0.5 0.1-1.2 0.2-1.8 0.3-0.5 0-1.3 0-1.8-0.1-0.4-0.1-1.2-0.3-1.6-0.5-0.4-0.2-1-0.6-1.4-0.9-0.3-0.4-0.7-0.9-1.3-2.2v-3.1c-0.1-2.8-0.1-3.1 0.2-3.9 0.2-0.6 0.4-1 0.8-1.5 0.4-0.3 1-0.8 1.4-1.1 0.5-0.2 1.2-0.5 1.6-0.5 0.4-0.1 1.2-0.2 1.9-0.2zm-2 3.9l-0.4 0.3v5.6c0.7 0.6 1.1 0.8 1.5 0.9 0.4 0.1 0.8 0.1 1.3 0 0.5-0.2 0.8-0.3 1.1-0.6l0.4-0.4c0-5.4 0-5.4-0.4-5.7q-0.3-0.4-0.9-0.6c-0.4-0.1-0.8-0.2-1-0.2-0.1 0-0.5 0.1-0.8 0.2-0.3 0.1-0.6 0.3-0.8 0.5zm21.4-3.8h3.1c2.5 0 3.2 0 3.9 0.2 0.5 0.2 1.1 0.4 1.6 0.7 0.4 0.3 0.9 0.8 1.1 1.2 0.3 0.3 0.5 0.8 0.6 1 0.1 0.3 0.2 1.7 0.2 3.2 0 1.9 0 3.1-0.1 3.7-0.1 0.5-0.3 1.1-0.4 1.3-0.1 0.3-0.5 0.7-0.8 1-0.2 0.3-0.8 0.7-1.2 0.9-0.4 0.2-1.1 0.4-1.6 0.5-0.4 0-2.1 0.1-6.4 0.1v-3.4h2.6c1.5 0 2.9 0 3.1-0.1 0.3-0.1 0.7-0.2 0.8-0.4 0.4-0.3 0.4-0.4 0.4-2.9 0-2 0-2.6-0.2-2.9-0.1-0.2-0.3-0.5-0.5-0.6-0.3-0.1-0.8-0.1-2.6-0.1v2.5c0 1.5-0.1 2.7-0.1 2.7-0.1 0.1-0.9-0.7-3.5-3.3zm-12.3 0.1l7.2 0.1 0.8 0.3c0.4 0.2 0.9 0.6 1.2 0.8 0.3 0.3 0.6 0.7 0.8 1 0.1 0.4 0.3 0.9 0.4 1.3 0.1 0.3 0.1 0.9 0.1 1.2 0 0.3 0 0.8-0.1 1.2-0.1 0.3-0.3 0.9-0.4 1.2-0.2 0.3-0.5 0.7-0.7 1-0.3 0.2-0.6 0.5-0.9 0.6-0.2 0.1-0.4 0.2-0.4 0.3 0 0 0.8 1 1.7 2.2 0.9 1.1 1.7 2.1 1.7 2.2 0.2 0.1-0.2 0.2-4.3 0.1l-1.5-2c-1.1-1.5-1.6-2.1-1.8-2.1-0.2-0.1-0.2-0.1-0.2 4.1h-3.6zm3.6 6.3c1.9 0 2.4-0.1 2.7-0.2 0.2-0.1 0.5-0.4 0.6-0.6q0.2-0.4 0.1-0.9c0-0.3-0.2-0.6-0.3-0.7-0.1-0.2-0.4-0.4-0.6-0.4-0.3-0.1-0.9-0.2-1.5-0.2h-1z"/></svg>