<svg version="1.2" xmlns="http://www.w3.org/2000/svg" viewBox="0 0 99 19" width="99" height="19">
	<title>a-svg</title>
	<style>
		.s0 { fill: #72767d } 
	</style>
	<path id="Discord" fill-rule="evenodd" class="s0" d="m0.9 0c2.1 0 7.3 0 7.6 0 0.2 0 0.6 0 0.8 0.1 0.2 0 0.6 0.2 0.9 0.2 0.2 0.1 0.5 0.2 0.6 0.2 0.1 0 0.5 0.3 0.7 0.3 0.2 0.2 0.5 0.3 0.6 0.4 0.2 0.2 0.4 0.4 0.7 0.6 0.1 0.1 0.4 0.4 0.5 0.5 0.1 0.2 0.3 0.4 0.4 0.6 0 0.1 0.1 0.4 0.2 0.5 0 0.2 0.2 0.4 0.3 0.6 0 0.1 0.1 0.4 0.1 0.5 0 0.3 0.2 0.6 0.2 0.9 0 0.4 0 1.1 0 4.1 0 2.9 0 3.7 0 4 0 0.1-0.2 0.5-0.2 0.7 0 0.1-0.1 0.4-0.1 0.5-0.1 0.3-0.3 0.5-0.3 0.7-0.1 0.1-0.2 0.4-0.2 0.5-0.1 0.2-0.4 0.3-0.5 0.6 0 0.1-0.3 0.4-0.6 0.5-0.1 0.2-0.3 0.3-0.5 0.4-0.1 0.2-0.4 0.3-0.5 0.3-0.1 0.2-0.4 0.3-0.5 0.3-0.3 0.1-0.5 0.3-0.8 0.3-0.1 0.1-0.5 0.1-0.7 0.2-0.2 0-0.6 0-0.7 0.2-0.4 0-1.1 0-8 0v-4.4c1.2 0 5 0 5.9 0 1.3-0.1 1.5-0.1 1.8-0.1 0.1 0 0.3-0.2 0.4-0.2 0 0 0.3-0.1 0.4-0.3 0-0.1 0.2-0.2 0.2-0.4q0.2-0.1 0.3-0.7v-6.8c0-0.2-0.1-0.4-0.1-0.4-0.2-0.2-0.3-0.3-0.3-0.5-0.1 0-0.2-0.1-0.4-0.2-0.1 0-0.4-0.2-0.5-0.2-0.4-0.1-0.4-0.1-3.1-0.1v7.4l-4.6-4.8zm15.9 0.1h4.4v18.5h-4.4zm9.2 12.7c1.7 2.2 5.6 2.4 5.8 0.3 0-1-1.6-1.6-3-1.8-2.9-0.5-5.5-2.3-5.5-5.9 0-3.7 3.1-5.5 6.4-5.5 2.1 0 4.2 0.6 6 2.9l-2.9 2.3c-1.8-2-5.1-1.9-5.1 0.2 0 0.9 0.9 1.5 2.4 1.8 3.1 0.5 6.2 1.7 6 6.3-0.2 3.6-3.7 5.5-6.9 5.5-2.1 0-4.3-1.1-6-3.3zm24.8 1.9c-1.5 3-4.1 4.1-6.3 4.1-3.4 0-6.9-2-6.9-6.3v-6.3c0-4.3 3.5-6.3 7-6.3 2.1 0 4.7 0.9 6.1 4.2l-3.6 1.5c-1.2-2.3-5.1-1.8-5.1 0.6v6.3c0 2.2 4 2.9 4.9 0.3zm1.2-8.5c0-4.3 3.6-6.4 7.3-6.4 3.6 0 7.3 2.1 7.3 6.4v6.3c0 4.2-3.7 6.3-7.3 6.3-3.7 0-7.3-2.1-7.3-6.3zm4.4 6.3c0 1.4 1.5 2.1 2.9 2.1 1.4 0 2.9-0.7 2.9-2.1v-6.3c0-1.4-1.6-2.1-3-2.1-1.3 0-2.8 0.7-2.8 2.1zm17.7 0.3h-0.8v5.9h-4.4v-18.6h7.1c3.5 0 6.3 1.8 6.5 6.1 0 3.4-1.3 5.3-3.6 6l4.9 6.5h-5.5zm1.7-4.2c2.8 0 2.8-4.2 0-4.2h-2.6v4.2zm8.8-8.6c2.2 0 7.3 0 7.6 0 0.2 0 0.5 0 0.8 0.1 0.2 0 0.6 0.2 0.9 0.2 0.1 0.1 0.5 0.1 0.6 0.2 0.2 0 0.4 0.2 0.7 0.3 0.1 0.1 0.5 0.3 0.6 0.4 0.2 0.2 0.4 0.3 0.7 0.6 0.1 0.1 0.4 0.4 0.5 0.5 0 0.2 0.3 0.4 0.3 0.6 0.1 0.1 0.2 0.2 0.3 0.5 0 0.2 0.2 0.4 0.2 0.6 0.1 0.1 0.1 0.4 0.2 0.5 0 0.3 0 0.6 0.2 0.8 0 0.5 0 1.1 0 4.2 0 2.8 0 3.7 0 3.9-0.2 0.2-0.2 0.5-0.2 0.7 0 0.2-0.1 0.4-0.2 0.6 0 0.3-0.2 0.5-0.3 0.7 0 0.1-0.1 0.2-0.2 0.5 0 0.2-0.3 0.3-0.4 0.4-0.2 0.3-0.4 0.4-0.6 0.6-0.1 0.3-0.3 0.4-0.5 0.5-0.1 0-0.4 0.2-0.5 0.3-0.1 0-0.4 0.1-0.5 0.3-0.3 0.1-0.7 0.3-0.8 0.3-0.3 0.1-0.5 0.1-0.8 0.1-0.1 0.1-0.5 0.1-0.6 0.1-0.4 0.2-1.1 0.2-8 0.2v-4.4h2.1c1.2 0 2.7-0.2 3.7-0.2 1.4 0 1.6 0 1.9 0 0-0.1 0.3-0.1 0.3-0.1 0.1-0.1 0.2-0.1 0.4-0.3q0.2-0.2 0.4-0.4 0.1-0.1 0.2-0.7v-7c-0.1-0.1-0.1-0.3-0.2-0.4 0 0-0.2-0.1-0.3-0.3 0 0-0.1-0.1-0.3-0.2-0.1 0-0.4-0.2-0.5-0.2-0.4-0.1-0.4-0.1-3.1-0.1v7.4l-4.6-4.8z"/>
</svg>