<?xml version="1.0" encoding="UTF-8"?><svg id="Icon" xmlns="http://www.w3.org/2000/svg" width="2560" height="1280" viewBox="0 0 2560 1280"><defs><style>.cls-1{fill:#cdc6fc;}.cls-1,.cls-2,.cls-3,.cls-4,.cls-5,.cls-6,.cls-7{stroke-miterlimit:10;}.cls-1,.cls-3,.cls-5,.cls-6,.cls-7{stroke:#1e2735;stroke-width:20px;}.cls-2{fill:#9538e6;}.cls-2,.cls-4{stroke:#111725;stroke-width:16px;}.cls-3{fill:#6e6aa3;}.cls-4{fill:#cdc6fd;}.cls-5,.cls-8{fill:#a9a3e0;}.cls-9{fill:none;stroke:#111726;stroke-linecap:round;stroke-linejoin:round;stroke-width:50px;}.cls-6{fill:#a9a3e2;}.cls-7{fill:#6e6aa2;}.cls-10{fill:#9338e6;}</style></defs><g id="Arm"><polygon class="cls-3" points="1130.57 938.97 587.76 713.92 320.11 302.53 563.95 267.87 722.26 586.1 1281.77 758 1130.57 938.97"/><circle class="cls-5" cx="459.22" cy="238.37" r="171.78"/><circle class="cls-7" cx="429.5" cy="188.83" r="68.29"/></g><g id="Cord"><g id="Wire"><path class="cls-9" d="m421.57,182.8c-52.18,27.9-74.32,81.09-67.3,129.91,16.87,117.23,281.49,166.5,330.61,175.65,226.26,42.13,324.52,12.87,430.65,53.27,79.83,30.39,136.29,86.52,139.04,210.12,1.63,73.28-36.72,146.62-98.37,187.82-86.31,57.69-147.06,98.78-235.71,20.9"/></g><g id="Plug"><path class="cls-4" d="m767.67,986.73l-50.43,35.64c-27.59,19.5-41.92,33.99-29,51.35,11.93,18.06,30.35,9.4,57.94-10.1l50.43-35.64"/><path class="cls-4" d="m858.77,1116.56l-50.43,35.64c-27.59,19.5-41.92,33.99-29,51.35,11.93,18.06,30.35,9.4,57.94-10.1l50.43-35.64"/><path class="cls-2" d="m730.92,973.36c1.57-1.27,26.54-19.09,29.35-21.12,33.58-24.21,93.57-46.78,144.55-24.89,28.35,12.17,45.1,32.05,58.12,49.53,12.35,18.75,25.02,40.72,26.88,71.61,3.35,55.55-38.03,104.62-72.06,128.2-2.85,1.98-27.99,19.56-29.7,20.62l-157.13-223.95Z"/></g></g><g id="Logo"><g id="arm"><path class="cls-8" d="m393.88,625.15c-16.03-34.2-60.18-55.73-122.79-55.73-71.52,0-123.78,29.15-123.78,86.28s52.1,85.95,123.78,85.95c62.8,0,107.03-21.66,122.93-55.88.79,31.86,4.5,51.23,4.5,51.23h75v-162.61h-79.64s0,50.75,0,50.75Zm-92.92,66.06c-45.13,0-71.02-11.95-71.02-35.51s25.88-35.51,71.02-35.51c50.56,0,92.92,7.3,92.92,35.51s-42.36,35.51-92.92,35.51Zm282.07-60.76v-56.05h-79.64v162.61h79.64v-79.38c9.19-6.11,37.49-21.84,85.62-21.84v-66.37c-46.36,0-75.28,35.8-85.62,61.03Zm523.97-61.03c-66.87,0-108.78,37.19-120.37,55.11-13.88-42.35-55.15-55.11-97.3-55.11-70.19,0-107.6,34.68-119.47,55.21v-50.23h-79.64v162.61h79.64v-92.31c9.96-5.84,41.43-22.17,82.3-22.17,45.13,0,59.73,12.61,59.73,45.8v68.69h79.64v-78.65c0-5.45-.31-10.58-.9-15.43,12.44-6.82,41.91-20.41,79.19-20.41,45.13,0,59.73,12.61,59.73,45.79v68.69h79.64v-78.65c0-69.69-50.44-88.94-102.21-88.93Z"/></g><g id="cord"><path class="cls-10" d="m1723.26,569.42c-105.53,0-157.63,25.22-157.63,86.61s52.1,85.95,157.63,85.95,156.3-24.22,156.3-85.95-51.44-86.61-156.3-86.61Zm0,122.78c-50.11,0-76.33-12.28-76.33-36.17s26.88-36.84,76.33-36.84,75,13.27,75,36.84-26.22,36.17-75,36.17Zm612.92-184.18v117.12c-16.03-34.2-60.18-55.73-122.79-55.73-71.52,0-123.78,29.15-123.78,86.28s52.1,85.95,123.78,85.95c62.8,0,107.03-21.66,122.93-55.88.79,31.86,4.5,51.23,4.5,51.23h75v-228.98h-79.64Zm-92.92,183.18c-45.13,0-71.02-11.95-71.02-35.51s25.88-35.51,71.02-35.51c50.56,0,92.92,7.3,92.92,35.51s-42.36,35.51-92.92,35.51Zm-846.54-1.33c-48.45,0-79.64-8.3-79.64-33.85s31.86-34.51,79.64-34.51c39.82,0,65.17,9.81,72.28,23.36h73.08c-.64-47.35-42.49-75.46-145.36-75.46s-160.95,23.56-160.95,86.61,58.07,85.95,160.95,85.95,145.81-27.77,145.78-75.74h-72.96c-7.6,13.59-33,23.64-72.82,23.64Zm589.03-59.43v-56.05h-79.64v162.61h79.64v-79.38c9.19-6.11,37.49-21.84,85.62-21.84v-66.37c-46.36,0-75.28,35.8-85.62,61.03Z"/></g></g><g id="Fist"><polygon class="cls-1" points="1161.99 658.02 1348.04 692.81 1218.4 1013.47 1042.14 928.95 1161.99 658.02"/><polygon class="cls-6" points="1094.62 624.62 1174.02 636.38 1114.13 766.87 1054.56 758.05 1094.62 624.62"/></g></svg>